# xmcd
#
# Track frame offsets: 
#        150
#        10419
#        22965
#        32466
#        44042
#        52292
#        60028
#        67561
#        78489
#        92775
#        101604
#        110928
#        118733
#        126467
#        135017
#        145280
#        151162
#        158500
#        167517
#
# Disc length: 2327 seconds
#
# Revision: 0
# Processed by: cddbd v1.5.2PL0 Copyright (c) Steve Scherf et al.
# Submitted via: ExactAudioCopy v0.99pb5
#
DISCID=f1091513
DTITLE=B.A. Johnston - Call Me When Old And Fat Is The New Young And S
DTITLE=exy
DYEAR=2006
DGENRE=Blues
TTITLE0=Chud Love
TTITLE1=I Am A Robocop
TTITLE2=Kiss Her You Loser
TTITLE3=Sleepin With My Walkman
TTITLE4=This Greyhound Shall Kill Me
TTITLE5=Robot World
TTITLE6=Mr Belvedere Reach For Your Dreams
TTITLE7=Paul Hogan
TTITLE8=Your Roomates A Couchetard
TTITLE9=Oskee Wee Wee
TTITLE10=Lies I Tell Myself
TTITLE11=The Dorset Fire Tower Shall Love Me
TTITLE12=I Shall Retire Today
TTITLE13=I Will Be A Skid Dad
TTITLE14=The Fart That Got Away
TTITLE15=Pitfallin For You
TTITLE16=You Are Cute When You Sleep
TTITLE17=Cooper Lake Road
TTITLE18=I Love This Dying Town
EXTD=
EXTT0=
EXTT1=
EXTT2=
EXTT3=
EXTT4=
EXTT5=
EXTT6=
EXTT7=
EXTT8=
EXTT9=
EXTT10=
EXTT11=
EXTT12=
EXTT13=
EXTT14=
EXTT15=
EXTT16=
EXTT17=
EXTT18=
PLAYORDER=
